<svg width="32" height="32" viewBox="0 0 32 32" fill="none" xmlns="http://www.w3.org/2000/svg">
<path d="M14.9471 9.87935C14.7427 9.67498 14.4113 9.67498 14.207 9.87935C14.0025 10.0837 14.0025 10.4151 14.207 10.6195L14.9471 9.87935ZM16.6703 12.3428L17.0404 12.7128C17.2447 12.5084 17.2447 12.177 17.0404 11.9726L16.6703 12.3428ZM14.207 14.066C14.0025 14.2704 14.0025 14.6017 14.207 14.8061C14.4113 15.0105 14.7427 15.0105 14.9471 14.8061L14.207 14.066ZM14.207 10.6195L16.3003 12.7128L17.0404 11.9726L14.9471 9.87935L14.207 10.6195ZM16.3003 11.9726L14.207 14.066L14.9471 14.8061L17.0404 12.7128L16.3003 11.9726Z" fill="#101828"/>
<path d="M18.3944 17.2031C18.5988 16.9987 18.9301 16.9987 19.1345 17.2031C19.3388 17.4074 19.3388 17.7389 19.1345 17.9432L18.3944 17.2031ZM16.6711 19.6665L16.3011 20.0365C16.0967 19.8321 16.0967 19.5008 16.3011 19.2965L16.6711 19.6665ZM19.1345 21.3897C19.3388 21.5941 19.3388 21.9255 19.1345 22.1298C18.9301 22.3342 18.5988 22.3342 18.3944 22.1298L19.1345 21.3897ZM19.1345 17.9432L17.0412 20.0365L16.3011 19.2965L18.3944 17.2031L19.1345 17.9432ZM17.0412 19.2965L19.1345 21.3897L18.3944 22.1298L16.3011 20.0365L17.0412 19.2965Z" fill="#101828"/>
<path fill-rule="evenodd" clip-rule="evenodd" d="M25.0716 16.8693C25.4708 16.4917 25.5666 16.1976 25.5666 16.0001C25.5666 15.8026 25.4708 15.5085 25.0716 15.1309C24.6701 14.7512 24.033 14.3611 23.1589 14.0115C22.2141 13.6336 21.0528 13.3269 19.7424 13.1254C19.4821 13.0854 19.2866 12.8635 19.2866 12.6001C19.2866 12.2842 19.5645 12.0395 19.8768 12.0871C23.8155 12.6882 26.6133 14.2134 26.6133 16.0001C26.6133 18.171 22.4824 19.956 17.1934 20.166C16.8491 20.1797 17.5466 20.1868 17.1934 20.1868V19.14C17.4575 19.14 16.6722 19.136 16.9303 19.128C19.4004 19.0519 21.5816 18.6197 23.1589 17.9887C24.033 17.6391 24.6701 17.2489 25.0716 16.8693ZM14.0534 19.5344C14.0534 19.262 13.8446 19.0357 13.5738 19.0071C11.8426 18.8239 10.3185 18.4623 9.13445 17.9887C8.26039 17.6391 7.62329 17.2489 7.22182 16.8693C6.82257 16.4917 6.7268 16.1976 6.7268 16.0001C6.7268 15.8026 6.82257 15.5085 7.22182 15.1309C7.62329 14.7512 8.26039 14.3611 9.13445 14.0115C10.8768 13.3145 13.3556 12.8601 16.1467 12.8601V11.8135C10.3662 11.8135 5.68015 13.6879 5.68015 16.0001C5.68015 17.9447 8.99438 19.5796 13.4866 20.0503C13.7912 20.0822 14.0534 19.8407 14.0534 19.5344Z" fill="#101828"/>
</svg>
