<svg width="21" height="21" viewBox="0 0 21 21" fill="none" xmlns="http://www.w3.org/2000/svg">
<path d="M0.43934 2.56066C-0.146447 1.97487 -0.146447 1.02513 0.43934 0.43934C1.02513 -0.146447 1.97487 -0.146447 2.56066 0.43934L20.5607 18.4393C21.1464 19.0251 21.1464 19.9749 20.5607 20.5607C19.9749 21.1464 19.0251 21.1464 18.4393 20.5607L0.43934 2.56066Z" fill="white"/>
<path d="M20.5607 2.56066C21.1464 1.97487 21.1464 1.02513 20.5607 0.43934C19.9749 -0.146447 19.0251 -0.146447 18.4393 0.43934L0.439341 18.4393C-0.146446 19.0251 -0.146446 19.9749 0.439341 20.5607C1.02513 21.1464 1.97487 21.1464 2.56066 20.5607L20.5607 2.56066Z" fill="white"/>
</svg>
