<svg width="18" height="19" viewBox="0 0 18 19" fill="none" xmlns="http://www.w3.org/2000/svg">
<g clip-path="url(#clip0_467_62416)">
<path fill-rule="evenodd" clip-rule="evenodd" d="M9.00502 0.0234375C4.03529 0.0234375 0.0100403 4.04869 0.0100403 9.01842C0.0100403 12.9987 2.58485 16.3606 6.16036 17.5524C6.61011 17.6311 6.77876 17.3613 6.77876 17.1251C6.77876 16.9115 6.76752 16.2032 6.76752 15.4498C4.50753 15.8658 3.92286 14.8989 3.74296 14.3929C3.64176 14.1343 3.20326 13.336 2.82097 13.1224C2.50615 12.9537 2.0564 12.5377 2.80973 12.5265C3.51808 12.5152 4.02405 13.1786 4.19271 13.4484C5.00225 14.8089 6.29528 14.4266 6.81249 14.1905C6.8912 13.6059 7.12732 13.2123 7.38592 12.9875C5.38454 12.7626 3.29321 11.9868 3.29321 8.54618C3.29321 7.56798 3.64176 6.75843 4.21519 6.12878C4.12524 5.90391 3.81042 4.98192 4.30514 3.74511C4.30514 3.74511 5.05847 3.50899 6.77876 4.6671C7.49836 4.46471 8.26293 4.36352 9.02751 4.36352C9.79208 4.36352 10.5567 4.46471 11.2763 4.6671C12.9965 3.49775 13.7499 3.74511 13.7499 3.74511C14.2446 4.98192 13.9298 5.90391 13.8398 6.12878C14.4133 6.75843 14.7618 7.55673 14.7618 8.54618C14.7618 11.998 12.6592 12.7626 10.6578 12.9875C10.9839 13.2685 11.265 13.8082 11.265 14.6515C11.265 15.8546 11.2538 16.8216 11.2538 17.1251C11.2538 17.3613 11.4224 17.6424 11.8722 17.5524C13.6578 16.9496 15.2095 15.802 16.3088 14.2711C17.408 12.7402 17.9995 10.9031 18 9.01842C18 4.04869 13.9747 0.0234375 9.00502 0.0234375Z" fill="#7F56D9"/>
</g>
<defs>
<clipPath id="clip0_467_62416">
<rect width="17.99" height="17.99" fill="white" transform="translate(0.0100403 0.0234375)"/>
</clipPath>
</defs>
</svg>
