<svg width="19" height="19" viewBox="0 0 19 19" fill="none" xmlns="http://www.w3.org/2000/svg">
<path d="M9 18.3446C6.54 18.3446 6.25 18.3316 5.29 18.2896C4.54137 18.265 3.80243 18.1128 3.105 17.8396C1.89831 17.37 0.94414 16.4155 0.475 15.2086C0.212306 14.5086 0.0706179 13.7691 0.056 13.0216C0 12.0636 0 11.7496 0 9.30859C0 6.84159 0.013 6.55359 0.056 5.59859C0.0709376 4.85211 0.212621 4.1136 0.475 3.41459C0.943631 2.20612 1.89935 1.25077 3.108 0.782594C3.80664 0.518796 4.54535 0.376738 5.292 0.362594C6.247 0.308594 6.561 0.308594 9 0.308594C11.48 0.308594 11.765 0.321594 12.71 0.362594C13.4586 0.37686 14.1992 0.518903 14.9 0.782594C16.1083 1.2513 17.0638 2.20647 17.533 3.41459C17.8001 4.12379 17.9426 4.87385 17.954 5.63159C18.01 6.58959 18.01 6.90259 18.01 9.34259C18.01 11.7826 17.996 12.1026 17.954 13.0496C17.9391 13.7978 17.7971 14.538 17.534 15.2386C17.0637 16.4463 16.1081 17.4012 14.9 17.8706C14.2002 18.1328 13.4611 18.2745 12.714 18.2896C11.759 18.3446 11.446 18.3446 9 18.3446ZM8.966 1.89159C6.52 1.89159 6.266 1.90359 5.311 1.94659C4.74098 1.95415 4.17648 2.05933 3.642 2.25759C2.85275 2.5596 2.22823 3.18159 1.923 3.96959C1.72321 4.50989 1.61801 5.08057 1.612 5.65659C1.559 6.62559 1.559 6.87959 1.559 9.30859C1.559 11.7086 1.568 11.9996 1.612 12.9626C1.62095 13.5328 1.7261 14.0974 1.923 14.6326C2.22868 15.4201 2.85309 16.0416 3.642 16.3436C4.17611 16.5432 4.74085 16.6484 5.311 16.6546C6.279 16.7106 6.534 16.7106 8.966 16.7106C11.419 16.7106 11.673 16.6986 12.62 16.6546C13.1904 16.6477 13.7553 16.5424 14.29 16.3436C15.0745 16.039 15.6949 15.4189 16 14.6346C16.1994 14.0938 16.3046 13.5229 16.311 12.9466H16.322C16.365 11.9906 16.365 11.7356 16.365 9.29259C16.365 6.84959 16.354 6.59259 16.311 5.63759C16.302 5.06804 16.1969 4.50411 16 3.96959C15.6956 3.18417 15.0751 2.56289 14.29 2.25759C13.7555 2.05834 13.1904 1.95311 12.62 1.94659C11.653 1.89159 11.4 1.89159 8.966 1.89159ZM9 13.9276C7.12999 13.9288 5.44342 12.8033 4.72686 11.076C4.01031 9.34877 4.40491 7.35992 5.72663 6.03706C7.04836 4.71419 9.03686 4.31786 10.7648 5.03293C12.4927 5.74799 13.6196 7.43358 13.62 9.30359C13.6172 11.8547 11.5511 13.9226 9 13.9276ZM9 6.30159C7.34315 6.30159 6 7.64474 6 9.30159C6 10.9584 7.34315 12.3016 9 12.3016C10.6569 12.3016 12 10.9584 12 9.30159C11.9962 7.64634 10.6553 6.30544 9 6.30159ZM13.8 5.5886C13.2054 5.58639 12.7249 5.10318 12.726 4.5086C12.7271 3.91402 13.2094 3.4326 13.804 3.4326C14.3986 3.4326 14.8809 3.91401 14.882 4.50859C14.8823 4.79546 14.7683 5.07062 14.5653 5.27327C14.3622 5.47593 14.0869 5.58939 13.8 5.5886Z" fill="#7F56D9"/>
</svg>
