<svg width="19" height="19" viewBox="0 0 19 19" fill="none" xmlns="http://www.w3.org/2000/svg">
<path d="M10.01 18.3271H6.01V6.32715H10.01V8.32715C10.8626 7.2424 12.1556 6.59572 13.535 6.56415C16.0156 6.57792 18.0172 8.59653 18.01 11.0771V18.3271H14.01V11.5771C13.85 10.4598 12.8918 9.63073 11.763 9.63315C11.2693 9.64876 10.8032 9.86492 10.4724 10.2318C10.1416 10.5986 9.97465 11.0844 10.01 11.5771V18.3271ZM4.01 18.3271H0.0100021V6.32715H4.01V18.3271ZM2.01 4.32715C0.905433 4.32715 0.0100021 3.43172 0.0100021 2.32715C0.0100021 1.22258 0.905433 0.327148 2.01 0.327148C3.11457 0.327148 4.01 1.22258 4.01 2.32715C4.01 2.85758 3.79929 3.36629 3.42422 3.74136C3.04914 4.11643 2.54044 4.32715 2.01 4.32715Z" fill="#7F56D9"/>
</svg>
