<svg width="31" height="31" viewBox="0 0 31 31" fill="none" xmlns="http://www.w3.org/2000/svg">
<path fill-rule="evenodd" clip-rule="evenodd" d="M0 3.1C0 1.38792 1.38792 0 3.1 0H27.9C29.6121 0 31 1.38792 31 3.1V27.9C31 29.6121 29.6121 31 27.9 31H3.1C1.38792 31 0 29.6121 0 27.9V3.1ZM10.3333 10.3333H8.26667V8.26667H10.3333V10.3333ZM8.26667 22.7333V12.4H10.3333V22.7333H8.26667ZM17.5667 14.4667C15.8546 14.4667 14.4667 15.8546 14.4667 17.5667V22.7333H12.4V12.4H14.4667V13.433C15.3302 12.7843 16.4035 12.4 17.5667 12.4C20.4201 12.4 22.7333 14.7132 22.7333 17.5667V22.7333H20.6667V17.5667C20.6667 15.8546 19.2787 14.4667 17.5667 14.4667Z" fill="#FEFEFE"/>
</svg>
