<svg width="21" height="21" viewBox="0 0 21 21" fill="none" xmlns="http://www.w3.org/2000/svg">
<circle cx="10.5" cy="10.5" r="10.5" fill="#0B7441"/>
<path d="M10.6466 7.60916V12.6462C10.6466 13.1609 11.1741 13.4992 11.592 13.1986C12.9243 12.2406 13.7966 10.6435 13.7966 8.8353C13.7966 6.74135 12.6269 5.24558 10.9278 4.41466C10.7504 4.32792 10.5428 4.32792 10.3654 4.41466C8.66638 5.24558 7.49663 6.74135 7.49663 8.8353C7.49663 10.3402 8.1009 11.6989 9.07163 12.6646" stroke="white" stroke-width="0.715696" stroke-linecap="round" stroke-linejoin="round"/>
<path d="M10.6468 11.9888C10.6468 15.0235 7.49695 15.2247 5.83427 14.7087C4.88132 14.413 4.1199 13.7651 3.62593 12.9752C3.6053 12.9422 3.61343 12.8991 3.64422 12.8753C4.88813 11.9141 6.65765 12.05 7.74018 13.1899L7.89275 13.3506" stroke="white" stroke-width="0.715696" stroke-linecap="round" stroke-linejoin="round"/>
<path d="M13.1656 13.3488L13.3182 13.1882C14.4007 12.0482 16.1702 11.9123 17.4141 12.8735C17.4449 12.8973 17.4531 12.9405 17.4324 12.9735C16.9384 13.7633 16.177 14.4113 15.2241 14.707C14.3123 14.9899 13.024 15.0572 12.0462 14.5599" stroke="white" stroke-width="0.715696" stroke-linecap="round" stroke-linejoin="round"/>
</svg>
