<svg width="21" height="17" viewBox="0 0 21 17" fill="none" xmlns="http://www.w3.org/2000/svg">
<path fill-rule="evenodd" clip-rule="evenodd" d="M20.01 2.05745C19.4371 2.89859 18.7513 3.61706 17.9527 4.21288C17.9701 4.33554 17.9788 4.51954 17.9788 4.76488C17.9788 6.16679 17.7183 7.55116 17.1975 8.91802C16.6767 10.2849 15.9432 11.5422 14.997 12.69C14.0508 13.8378 12.8182 14.7666 11.2991 15.4763C9.77996 16.186 8.11765 16.5409 6.31209 16.5409C4.07249 16.5409 1.97182 15.9188 0.0100021 14.6746C0.635005 14.7272 0.964864 14.7534 0.999586 14.7534C2.8746 14.7534 4.56729 14.1576 6.07771 12.966C5.19229 12.9485 4.39803 12.6725 3.6949 12.138C2.99177 11.6035 2.51 10.9157 2.24959 10.0746C2.47528 10.1272 2.7357 10.1534 3.03084 10.1534C3.41278 10.1534 3.77736 10.1009 4.12459 9.99573C3.16972 9.80297 2.3798 9.33421 1.75479 8.58945C1.12979 7.84468 0.817293 6.97288 0.817293 5.97402V5.92145C1.42493 6.23688 2.04125 6.40335 2.66625 6.42088C1.45097 5.57973 0.843336 4.43193 0.843336 2.97745C0.843336 2.25897 1.02563 1.55802 1.39021 0.87459C2.43188 2.15383 3.68621 3.17897 5.15323 3.95002C6.62025 4.72107 8.18708 5.14164 9.85375 5.21173C9.78431 4.82621 9.74959 4.51078 9.74959 4.26545C9.74959 3.12639 10.1489 2.14945 10.9475 1.33459C11.7461 0.519729 12.7096 0.112305 13.8381 0.112305C15.0187 0.112305 16.0256 0.559157 16.859 1.45288C17.727 1.27764 18.5864 0.935926 19.4371 0.427733C19.1419 1.44412 18.5517 2.21516 17.6663 2.74088C18.4301 2.63573 19.2114 2.40793 20.01 2.05745Z" fill="#7F56D9"/>
</svg>
